<?xml version="1.0" encoding="utf-8"?>
<!-- Generator: Adobe Illustrator 23.1.0, SVG Export Plug-In . SVG Version: 6.00 Build 0)  -->
<svg version="1.1" id="Layer_1" xmlns="http://www.w3.org/2000/svg" xmlns:xlink="http://www.w3.org/1999/xlink" x="0px" y="0px"
	 viewBox="0 0 90.03 119.39" style="enable-background:new 0 0 90.03 119.39;" xml:space="preserve">
<style type="text/css">
	.st0{fill:#FFFFFF;}
</style>
<g>
	<path class="st0" d="M3.21,15.91c1.2-0.14,2.5-0.14,3.7-0.43c0.72-0.14,1.01,0.14,1.1,0.58c0.05,0.48-0.1,1.1-0.86,1.15
		c-1.1,0.05-2.16,0.1-3.22,0.14c-0.62,0-0.86,0.24-0.86,0.86c-0.05,3.07-0.14,6.1-0.19,9.17c-0.1,4.8-0.14,9.6-0.24,14.4
		c0,1.39,0,2.83,0,4.27c0,0.58,0.1,0.86,0.91,0.86c1.1-0.05,2.3,0.24,3.41,0.53c0.34,0.1,0.53,0.67,0.77,1.01
		c-0.34,0.19-0.62,0.58-0.96,0.58c-0.91,0-1.78-0.14-2.69-0.24c-0.29-0.05-0.53-0.1-0.82-0.14c-2.35-0.24-2.3-0.24-2.21-2.69
		c0.1-2.16,0.1-4.32,0.19-6.48c0.05-2.16,0.19-4.37,0.19-6.53c0.05-3.26-0.05-6.48,0.05-9.75c0.05-3.17,0.29-6.34,0.34-9.5
		c0.05-3.41-0.05-6.82-0.05-10.22c0-0.53-0.24-1.2,0-1.49c0.34-0.43,1.01-0.82,1.58-0.86c1.73-0.1,3.46-0.05,5.14-0.1
		c0.62,0,1.15,0.1,1.2,0.82c0,0.72-0.43,1.06-1.15,1.06c-1.73,0-3.41,0-5.33,0C3.21,7.22,3.21,11.44,3.21,15.91z"/>
	<path class="st0" d="M14.06,10c0.05,1.92,0.05,3.79,0.1,5.66c0,0.96,0.1,1.92,0.1,2.93c0,3.6,0,7.25,0.05,10.9
		c0.05,2.59,0.29,5.23,0.38,7.87c0.1,3.12,0.14,6.29,0.29,9.41c0.05,0.82-0.38,1.15-1.01,1.15c-0.29,0-0.86-0.48-0.82-0.67
		c0.58-2.98,0-5.95-0.05-8.88c0-1.97-0.14-10.32-0.19-11.71c-0.1-3.07-0.05-6.14-0.05-9.26c0-1.54,0.1-3.12,0.05-4.66
		c0-1.15-0.24-2.3-0.29-3.5c-0.1-1.82-0.1-3.65-0.14-5.47c-0.05-0.29,0-0.58-0.1-0.82c-0.19-0.67-0.19-1.25,0.58-1.44
		c0.67-0.14,1.34-0.14,1.68,0.77c0.62,1.73,1.49,3.46,1.97,5.23c0.91,3.26,1.63,6.58,2.4,9.89c1.1,4.61,2.26,9.22,3.31,13.83
		c0.62,2.88,1.06,5.81,1.58,8.69c0.05,0.38,0.24,0.77,0.62,1.1c0-2.16,0-4.32,0.05-6.48c0-1.1,0.19-2.26,0.19-3.41
		c0-1.3-0.19-2.59-0.19-3.89c-0.05-2.83-0.05-5.62-0.05-8.45c-0.05-3.7,0-7.39,0.05-11.04c0-1.92,0.05-3.79,0.19-5.71
		c0.05-0.34,0.53-0.67,0.77-1.01c0.24,0.34,0.62,0.67,0.62,0.96c0,3.6-0.19,7.2-0.19,10.8c-0.05,3.7-0.05,7.39,0,11.09
		c0,2.4,0.19,4.85,0.24,7.3c0,2.35,0,4.66,0,7.01c0,3.12,0,6.24,0,9.36c0,0.82-0.24,1.39-1.1,1.49c-0.77,0.05-1.54-0.77-1.63-1.58
		c-0.29-2.64-0.53-5.28-0.96-7.87c-0.53-3.07-1.15-6.1-1.82-9.12c-0.19-1.01-0.62-2.02-0.86-3.07c-0.29-1.2-0.48-2.5-0.77-3.74
		c-0.67-3.12-1.25-6.24-2.02-9.36c-0.53-2.3-1.25-4.56-1.87-6.77c-0.19-0.62-0.53-1.2-0.77-1.78c-0.1,0-0.24,0-0.34,0
		C14.06,7.17,14.06,8.61,14.06,10z"/>
	<path class="st0" d="M40.55,20.95c-0.14,2.78-0.43,5.57-0.77,8.35s-0.72,5.57-1.3,8.3c-0.29,1.39-1.15,2.69-1.44,4.08
		c-0.29,1.34-0.86,2.4-1.73,3.36c-1.15,1.25-2.3,2.45-3.5,3.6c-0.72,0.72-1.15,0.38-1.82-0.38c-0.82-0.91-0.48-1.73-0.43-2.69
		c0.14-3.07,0.29-6.14,0.34-9.22c0.1-3.74,0.14-7.54,0.14-11.33c0.05-4.8,0-9.65,0.05-14.5c0.05-1.73,0.24-3.46,0.29-5.18
		c0.05-0.91-0.1-1.82-0.14-2.69c-0.05-1.54,0.58-1.92,1.97-1.44c3.12,1.15,5.62,3.17,6.72,6.29c0.86,2.54,1.78,5.33,1.44,8.26
		C40.41,17.44,40.65,19.17,40.55,20.95z M31.29,46.73c0.24,0,0.29-0.24,0.38-0.34c2.83-1.87,4.27-4.75,5.18-7.82
		c0.77-2.59,1.06-5.38,1.54-8.11c0.24-1.44,0.38-2.93,0.43-4.37c0.1-2.93,0-5.9,0.14-8.88c0.19-3.02-0.34-5.9-1.25-8.78
		c-0.91-2.93-3.02-4.56-5.86-5.42C31.67,17.59,31.48,32.13,31.29,46.73z"/>
	<path class="st0" d="M49.82,48.07c-0.19,1.2-4.61,1.06-5.95,0.72c-0.62-0.14-0.77-0.53-0.77-1.1c0.05-1.15,0.1-2.35,0.1-3.5
		c0.1-5.57,0.19-11.14,0.34-16.66c0.05-3.12,0.24-6.24,0.24-9.36c0-3.46-0.14-6.91-0.24-10.37c-0.05-1.82-0.14-3.65-0.1-5.47
		c0-0.43,0.05-1.15,0.77-1.3c0.72-0.1,0.72,0.82,0.72,1.25c0.1,4.46,0.14,8.93,0.19,13.39c0,3.5,0.1,7.01,0,10.51
		c-0.05,3.36-0.34,6.67-0.34,10.03c0,3.22,0.19,6.43,0.24,9.7c0.05,0.34,0.19,0.67,0.1,1.2C46.79,47.16,50.15,46.24,49.82,48.07z"/>
	<path class="st0" d="M55.05,15.91c1.2-0.14,2.5-0.14,3.7-0.43c0.72-0.14,1.01,0.14,1.1,0.58c0.05,0.48-0.1,1.1-0.86,1.15
		c-1.1,0.05-2.16,0.1-3.22,0.14c-0.62,0-0.86,0.24-0.86,0.86c-0.05,3.07-0.14,6.1-0.19,9.17c-0.1,4.8-0.14,9.6-0.24,14.4
		c0,1.39,0,2.83,0,4.27c0,0.58,0.1,0.86,0.91,0.86c1.1-0.05,2.3,0.24,3.41,0.53c0.34,0.1,0.53,0.67,0.77,1.01
		c-0.34,0.19-0.62,0.58-0.96,0.58c-0.91,0-1.78-0.14-2.69-0.24c-0.29-0.05-0.53-0.1-0.82-0.14c-2.35-0.24-2.3-0.24-2.21-2.69
		c0.1-2.16,0.1-4.32,0.19-6.48c0.05-2.16,0.19-4.37,0.19-6.53c0.05-3.26-0.05-6.48,0.05-9.75c0.05-3.17,0.29-6.34,0.34-9.5
		c0.05-3.41-0.05-6.82-0.05-10.22c0-0.53-0.24-1.2,0-1.49c0.34-0.43,1.01-0.82,1.58-0.86c1.73-0.1,3.46-0.05,5.14-0.1
		c0.62,0,1.15,0.1,1.2,0.82c0,0.72-0.43,1.06-1.15,1.06c-1.73,0-3.41,0-5.33,0C55.05,7.22,55.05,11.44,55.05,15.91z"/>
	<path class="st0" d="M67.77,16.15c1.82,2.69,4.03,5.09,5.42,8.11c1.87,3.94,2.45,8.02,2.21,12.34c-0.1,1.44,0.05,2.98-0.1,4.42
		c-0.24,2.06-0.58,4.18-1.87,5.86c-1.1,1.39-2.5,2.54-4.51,2.02c-0.58-0.14-1.1-0.67-1.63-1.06c-1.58-1.15-2.16-2.88-2.59-4.66
		c-0.24-0.96-0.34-1.92-0.53-2.88c-0.14-0.58,0-0.96,0.62-1.06c0.58-0.1,0.77,0.24,0.86,0.77c0.14,1.2,0.29,2.4,0.58,3.55
		c0.38,1.68,1.44,2.88,2.88,3.7c1.01,0.58,2.02,0.1,2.88-1.01c1.44-1.87,1.87-4.08,2.02-6.34c0.29-3.74,0.14-7.44-0.58-11.09
		c-0.29-1.58-1.15-3.07-1.78-4.61c-0.86-2.16-2.45-3.79-3.84-5.57c-1.49-1.97-2.83-4.03-3.41-6.43c-0.19-0.77,0.14-1.68,0.24-2.5
		c0.29-1.87,0.48-3.74,0.91-5.62c0.24-1.01,0.72-2.21,1.49-2.78c0.58-0.43,1.97-0.34,2.74,0.05c1.68,0.77,2.45,2.3,2.54,4.18
		c0.05,0.53,0.34,1.06,0.43,1.58c0.05,0.34,0.05,0.72-0.05,1.06c0,0.1-0.53,0.19-0.62,0.1c-0.19-0.24-0.29-0.58-0.43-0.86
		c-0.48-1.3-0.82-2.69-1.49-3.89c-0.77-1.49-1.68-1.34-2.69-0.05c-1.15,1.44-1.1,3.17-1.34,4.8c-0.19,1.06-0.24,2.16-0.29,3.26
		C65.75,13.36,66.81,14.71,67.77,16.15z"/>
	<path class="st0" d="M81.35,16.15c1.82,2.69,4.03,5.09,5.42,8.11c1.87,3.94,2.45,8.02,2.21,12.34c-0.1,1.44,0.05,2.98-0.1,4.42
		c-0.24,2.06-0.58,4.18-1.87,5.86c-1.1,1.39-2.5,2.54-4.51,2.02c-0.58-0.14-1.1-0.67-1.63-1.06c-1.58-1.15-2.16-2.88-2.59-4.66
		c-0.24-0.96-0.34-1.92-0.53-2.88c-0.14-0.58,0-0.96,0.62-1.06c0.58-0.1,0.77,0.24,0.86,0.77c0.14,1.2,0.29,2.4,0.58,3.55
		c0.38,1.68,1.44,2.88,2.88,3.7c1.01,0.58,2.02,0.1,2.88-1.01c1.44-1.87,1.87-4.08,2.02-6.34c0.29-3.74,0.14-7.44-0.58-11.09
		c-0.29-1.58-1.15-3.07-1.78-4.61c-0.86-2.16-2.45-3.79-3.84-5.57c-1.49-1.97-2.83-4.03-3.41-6.43c-0.19-0.77,0.14-1.68,0.24-2.5
		c0.29-1.87,0.48-3.74,0.91-5.62c0.24-1.01,0.72-2.21,1.49-2.78c0.58-0.43,1.97-0.34,2.74,0.05c1.68,0.77,2.45,2.3,2.54,4.18
		c0.05,0.53,0.34,1.06,0.43,1.58c0.05,0.34,0.05,0.72-0.05,1.06c0,0.1-0.53,0.19-0.62,0.1c-0.19-0.24-0.29-0.58-0.43-0.86
		c-0.48-1.3-0.82-2.69-1.49-3.89c-0.77-1.49-1.68-1.34-2.69-0.05c-1.15,1.44-1.1,3.17-1.34,4.8c-0.19,1.06-0.24,2.16-0.29,3.26
		C79.34,13.36,80.39,14.71,81.35,16.15z"/>
	<path class="st0" d="M4.65,85.5c1.82,2.69,4.03,5.09,5.42,8.11c1.87,3.94,2.45,8.02,2.21,12.34c-0.1,1.44,0.05,2.98-0.1,4.42
		c-0.24,2.06-0.58,4.18-1.87,5.86c-1.1,1.39-2.5,2.54-4.51,2.02c-0.58-0.14-1.1-0.67-1.63-1.06c-1.58-1.15-2.16-2.88-2.59-4.66
		c-0.24-0.96-0.34-1.92-0.53-2.88c-0.14-0.58,0-0.96,0.62-1.06c0.58-0.1,0.77,0.24,0.86,0.77c0.14,1.2,0.29,2.4,0.58,3.55
		c0.38,1.68,1.44,2.88,2.88,3.7c1.01,0.58,2.02,0.1,2.88-1.01c1.44-1.87,1.87-4.08,2.02-6.34c0.29-3.74,0.14-7.44-0.58-11.09
		c-0.29-1.58-1.15-3.07-1.78-4.61c-0.86-2.16-2.45-3.79-3.84-5.57c-1.49-1.97-2.83-4.03-3.41-6.43c-0.19-0.77,0.14-1.68,0.24-2.5
		c0.29-1.87,0.48-3.74,0.91-5.62c0.24-1.01,0.72-2.21,1.49-2.78c0.58-0.43,1.97-0.34,2.74,0.05c1.68,0.77,2.45,2.3,2.54,4.18
		c0.05,0.53,0.34,1.06,0.43,1.58c0.05,0.34,0.05,0.72-0.05,1.06c0,0.1-0.53,0.19-0.62,0.1c-0.19-0.24-0.29-0.58-0.43-0.86
		c-0.48-1.3-0.82-2.69-1.49-3.89c-0.77-1.49-1.68-1.34-2.69-0.05c-1.15,1.44-1.1,3.17-1.34,4.8c-0.19,1.06-0.24,2.16-0.29,3.26
		C2.63,82.71,3.69,84.06,4.65,85.5z"/>
	<path class="st0" d="M23.32,90.49c0.05-1.73-0.1-3.41-0.05-5.09c0.05-1.87,0.19-3.7,0.29-5.57c0.1-2.5,0.19-5.04,0.24-7.58
		c0-0.67,0.1-1.25,0.96-1.2s0.91,0.58,0.86,1.34c-0.19,2.54-0.29,5.09-0.43,7.63c-0.19,3.74-0.38,7.49-0.53,11.19
		c-0.19,4.42-0.34,8.83-0.58,13.25c-0.1,1.78-0.34,3.55-0.53,5.28c-0.19,1.49-0.34,2.93-0.67,4.37c-0.24,1.15-0.62,2.3-1.1,3.41
		c-0.53,1.1-2.93,1.15-3.6,0.1c-1.3-1.92-1.49-4.18-1.78-6.34c-0.38-3.22-0.72-6.38-0.86-9.6c-0.1-2.88,0.19-5.81,0.29-8.74
		c0.05-2.59,0-5.18,0.05-7.78c0-0.82,0.14-1.63,0.14-2.45c0.05-2.98,0.1-5.95,0.14-8.98c0-0.72-0.14-1.49-0.1-2.21
		c0.05-0.38-0.05-1.15,0.67-1.15s0.72,0.72,0.72,1.06c0,4.22-0.1,8.45-0.14,12.63c0,2.4,0,4.75-0.05,7.1
		c-0.05,3.6-0.38,7.2-0.14,10.75c0.24,3.89,0.24,7.78,1.34,11.62c0.24,0.82,0.14,1.82,0.72,2.59c0.24,0.24,0.48,0.48,0.67,0.72
		c0.24-0.24,0.58-0.43,0.67-0.72c0.53-1.87,1.25-3.74,1.49-5.66c0.48-3.41,0.62-6.82,0.91-10.27c0.05-0.58,0-1.15,0-1.73h-0.05
		C23.03,95.82,23.23,93.13,23.32,90.49z"/>
	<path class="st0" d="M38.73,73.16c0.19-0.58,0.34-1.25,0.58-1.82c0.14-0.34,0.62-0.86,0.82-0.82c0.43,0.14,1.01,0.48,1.15,0.91
		c0.24,0.67,0.34,1.44,0.34,2.16c0.05,1.87-0.1,3.79-0.05,5.66c0.1,3.55,0.24,7.15,0.43,10.7c0.14,3.17,0.29,6.29,0.53,9.41
		c0.19,2.69,0.53,5.33,0.62,8.02c0.14,2.93,0.1,5.9,0.1,8.88c0,0.29-0.05,0.58,0.05,0.82c0.29,0.77-0.19,1.25-0.72,1.3
		c-0.62,0.05-1.06-0.43-1.01-1.2c0.1-1.25,0.29-2.54,0.24-3.84c-0.05-3.02-0.24-6.1-0.38-9.12c-0.05-0.96-0.14-1.87-0.19-2.83
		c-0.05-1.15-0.14-2.3-0.05-3.5c0.1-1.15-0.1-2.3-0.19-3.46c-0.1-1.34-0.29-2.64-0.38-3.94c-0.19-2.21-0.34-4.46-0.48-6.72
		c-0.1-2.21-0.14-4.46-0.19-6.72c0-0.48,0.05-1.01,0.1-1.54c-0.14,0-0.29-0.05-0.38-0.05c-0.58,1.78-1.2,3.55-1.68,5.38
		c-0.43,1.63-0.67,3.36-1.1,5.04c-0.14,0.67-0.53,1.3-1.34,1.34c-0.86,0.1-1.06-0.53-1.2-1.25c-0.29-1.54-0.62-3.12-1.01-4.66
		c-0.14-0.72-0.53-1.39-0.77-2.11c-0.38-1.3-0.72-2.69-1.1-3.98c-0.05-0.24-0.24-0.43-0.58-0.58c0,1.44,0,2.88,0,4.32
		c0.05,2.5,0.1,4.94,0.1,7.44c0.05,4.42-0.05,8.88,0,13.3c0,3.07,0.05,6.1,0.14,9.17c0.1,2.4,0.38,4.75,0.48,7.15
		c0,0.38-0.53,1.01-0.91,1.1c-0.62,0.19-0.91-0.29-0.91-0.91c0-3.46-0.1-6.86-0.14-10.32c-0.05-2.3-0.14-4.66-0.14-6.96
		c0-2.93,0.1-5.81,0.1-8.69c-0.05-3.84-0.19-7.73-0.24-11.57c-0.05-1.63,0.1-3.22,0.05-4.85c0-0.72-0.24-1.39-0.19-2.06
		c0.05-0.48,0.29-1.1,0.62-1.25c0.48-0.19,1.15-0.34,1.44,0.48c0.82,2.4,1.73,4.8,2.54,7.15c0.38,1.15,0.72,2.3,1.01,3.41
		c0.24,0.77,0.38,1.54,0.62,2.54C36.57,80.31,37.63,76.76,38.73,73.16z"/>
	<path class="st0" d="M56.59,73.16c0.19-0.58,0.34-1.25,0.58-1.82c0.14-0.34,0.62-0.86,0.82-0.82c0.43,0.14,1.01,0.48,1.15,0.91
		c0.24,0.67,0.34,1.44,0.34,2.16c0.05,1.87-0.1,3.79-0.05,5.66c0.1,3.55,0.24,7.15,0.43,10.7c0.14,3.17,0.29,6.29,0.53,9.41
		c0.19,2.69,0.53,5.33,0.62,8.02c0.14,2.93,0.1,5.9,0.1,8.88c0,0.29-0.05,0.58,0.05,0.82c0.29,0.77-0.19,1.25-0.72,1.3
		c-0.62,0.05-1.06-0.43-1.01-1.2c0.1-1.25,0.29-2.54,0.24-3.84c-0.05-3.02-0.24-6.1-0.38-9.12c-0.05-0.96-0.14-1.87-0.19-2.83
		c-0.05-1.15-0.14-2.3-0.05-3.5c0.1-1.15-0.1-2.3-0.19-3.46c-0.1-1.34-0.29-2.64-0.38-3.94c-0.19-2.21-0.34-4.46-0.48-6.72
		c-0.1-2.21-0.14-4.46-0.19-6.72c0-0.48,0.05-1.01,0.1-1.54c-0.14,0-0.29-0.05-0.38-0.05c-0.58,1.78-1.2,3.55-1.68,5.38
		c-0.43,1.63-0.67,3.36-1.1,5.04c-0.14,0.67-0.53,1.3-1.34,1.34c-0.86,0.1-1.06-0.53-1.2-1.25c-0.29-1.54-0.62-3.12-1.01-4.66
		c-0.14-0.72-0.53-1.39-0.77-2.11c-0.38-1.3-0.72-2.69-1.1-3.98c-0.05-0.24-0.24-0.43-0.58-0.58c0,1.44,0,2.88,0,4.32
		c0.05,2.5,0.1,4.94,0.1,7.44c0.05,4.42-0.05,8.88,0,13.3c0,3.07,0.05,6.1,0.14,9.17c0.1,2.4,0.38,4.75,0.48,7.15
		c0,0.38-0.53,1.01-0.91,1.1c-0.62,0.19-0.91-0.29-0.91-0.91c0-3.46-0.1-6.86-0.14-10.32c-0.05-2.3-0.14-4.66-0.14-6.96
		c0-2.93,0.1-5.81,0.1-8.69c-0.05-3.84-0.19-7.73-0.24-11.57c-0.05-1.63,0.1-3.22,0.05-4.85c0-0.72-0.24-1.39-0.19-2.06
		c0.05-0.48,0.29-1.1,0.62-1.25c0.48-0.19,1.15-0.34,1.44,0.48c0.82,2.4,1.73,4.8,2.54,7.15c0.38,1.15,0.72,2.3,1.01,3.41
		c0.24,0.77,0.38,1.54,0.62,2.54C54.43,80.31,55.48,76.76,56.59,73.16z"/>
	<path class="st0" d="M67.1,85.26c1.2-0.14,2.5-0.14,3.7-0.43c0.72-0.14,1.01,0.14,1.1,0.58c0.05,0.48-0.1,1.1-0.86,1.15
		c-1.1,0.05-2.16,0.1-3.22,0.14c-0.62,0-0.86,0.24-0.86,0.86c-0.05,3.07-0.14,6.1-0.19,9.17c-0.1,4.8-0.14,9.6-0.24,14.4
		c0,1.39,0,2.83,0,4.27c0,0.58,0.1,0.86,0.91,0.86c1.1-0.05,2.3,0.24,3.41,0.53c0.34,0.1,0.53,0.67,0.77,1.01
		c-0.34,0.19-0.62,0.58-0.96,0.58c-0.91,0-1.78-0.14-2.69-0.24c-0.29-0.05-0.53-0.1-0.82-0.14c-2.35-0.24-2.3-0.24-2.21-2.69
		c0.1-2.16,0.1-4.32,0.19-6.48c0.05-2.16,0.19-4.37,0.19-6.53c0.05-3.26-0.05-6.48,0.05-9.75c0.05-3.17,0.29-6.34,0.34-9.5
		c0.05-3.41-0.05-6.82-0.05-10.23c0-0.53-0.24-1.2,0-1.49c0.34-0.43,1.01-0.82,1.58-0.86c1.73-0.1,3.46-0.05,5.14-0.1
		c0.62,0,1.15,0.1,1.2,0.82c0,0.72-0.43,1.06-1.15,1.06c-1.73,0-3.41,0-5.33,0C67.1,76.57,67.1,80.79,67.1,85.26z"/>
	<path class="st0" d="M87.69,117.28c-0.1-0.34-0.1-0.62-0.14-0.96c-0.58-2.26-1.15-4.51-1.73-6.82c-0.77-3.02-1.49-6.1-2.3-9.12
		c-0.82-3.12-1.78-6.24-2.69-9.36c-0.38-1.39-0.82-2.78-1.25-4.22c0.34-0.19,0.67-0.38,1.01-0.58c0.14-0.1,0.29-0.19,0.34-0.29
		c1.39-0.68,2.91-1.94,3.99-3.44v0.01c1.52-1.94,1.83-2.8,1.43-4.43c-0.02-0.24-0.06-0.48-0.13-0.72c-0.04-0.17-0.13-0.34-0.24-0.52
		c0,0,0,0,0-0.01c-1.1-3.12-3.97-5.11-7.09-6.26c-0.67-0.23-1.16-0.26-1.48-0.05l0,0l0,0c-0.14,0.09-0.25,0.24-0.33,0.42
		c-0.15,0.16-0.3,0.32-0.32,0.5c-0.05,2.88,0,5.76-0.14,8.69c-0.05,1.73-0.43,3.46-0.43,5.18c-0.05,2.83,0.14,5.66,0.14,8.5
		c0,2.93-0.14,5.81-0.14,8.74c0,2.3,0.1,4.56,0.14,6.86c0.1,2.54,0.19,5.14,0.14,7.73c0,0.82,0.34,1.15,1.1,1.15
		c0.82,0,0.72-0.58,0.67-1.2c-0.19-2.16-0.38-4.32-0.43-6.53c-0.05-1.49,0.14-3.02,0.14-4.51c0-0.96-0.19-1.92-0.19-2.88
		c-0.05-2.16-0.05-4.32-0.05-6.48c0-2.54,0.05-5.09,0.05-7.58c0-0.24,0.1-0.48,0.14-0.72c0.82,1.78,1.44,3.46,1.97,5.23
		c0.91,3.17,1.78,6.38,2.69,9.55c0.86,3.07,1.78,6.14,2.54,9.27c0.43,1.63,0.62,3.31,0.86,4.99c0.1,0.72,0.43,1.01,1.1,0.96
		C87.79,118.29,87.79,117.81,87.69,117.28z M77.75,85.74c0.19-4.27,0.34-8.54,0.53-12.82c0.24-0.19,0.48-0.32,0.72-0.42
		c2.61,0.9,4.74,2.56,5.61,5.31c0.15,0.74,0.22,1.48,0.16,2.18C84.58,82.1,79.72,85.4,77.75,85.74z"/>
	<path class="st0" d="M49.12,56.86c-1.25-0.88-2.76-0.84-4.18-1.03c-0.92-0.15-1.88-0.18-2.84-0.22c-1.59-0.07-2.76,0.73-4.01,1.47
		c-2.34,1.39-4.43,3.08-7.06,4.15c-3.43,1.43-6.98,1.87-10.74,1.69c-1.25-0.07-2.59,0.04-3.84-0.07c-1.62-0.17-3.27-0.39-4.64-1.15
		c-0.27-0.15-0.36-0.47-0.23-0.72l0,0c0.16-0.32,0.61-0.46,0.95-0.28c1.49,0.8,3.17,1.07,4.89,1.16c3.26,0.22,6.48,0.11,9.65-0.44
		c1.38-0.22,2.67-0.88,4.01-1.36c1.88-0.66,3.3-1.87,4.85-2.94c1.71-1.14,3.51-2.17,5.6-2.61c0.67-0.15,1.46,0.11,2.17,0.18
		c1.63,0.22,3.26,0.37,4.89,0.7c0.88,0.18,1.39,0.35,2.42,1.14C52.03,57.32,50.37,57.75,49.12,56.86z"/>
	<path class="st0" d="M26.68,63.85c0.53-0.29,3.05-0.62,4.38-1.09c1.88-0.66,3.3-1.87,4.85-2.94c1.71-1.14,3.51-2.17,5.6-2.61
		c0.67-0.15,1.89-0.12,2.6-0.04c1.63,0.22,3.78,0.79,3.78,0.99s-0.52,0.12-1.06,0.07c-0.58-0.06-1.87-0.35-1.96-0.36
		c-0.87-0.13-1.6-0.11-2.51-0.14c-1.59-0.07-3.2,1.05-4.46,1.79c-2.14,1.27-3.51,2.38-5.83,3.44c-0.44,0.2-2.33,0.64-2.82,0.66
		C29.25,63.62,26.17,64.13,26.68,63.85z"/>
	<path class="st0" d="M41.82,61.54c1.25,0.88,2.76,0.84,4.18,1.03c0.92,0.15,1.88,0.18,2.84,0.22c1.59,0.07,2.76-0.73,4.01-1.47
		c2.34-1.39,4.43-3.08,7.06-4.15c3.43-1.43,6.98-1.87,10.74-1.69c1.25,0.07,2.59-0.04,3.84,0.07c1.62,0.17,3.27,0.39,4.64,1.15
		c0.27,0.15,0.36,0.47,0.23,0.72l0,0c-0.16,0.32-0.61,0.46-0.95,0.28c-1.49-0.8-3.17-1.07-4.89-1.16c-3.26-0.22-6.48-0.11-9.65,0.44
		c-1.38,0.22-2.67,0.88-4.01,1.36c-1.88,0.66-3.3,1.87-4.85,2.94c-1.71,1.14-3.51,2.17-5.6,2.61c-0.67,0.15-1.46-0.11-2.17-0.18
		c-1.63-0.22-3.26-0.37-4.89-0.7c-0.88-0.18-1.39-0.35-2.42-1.14S40.57,60.66,41.82,61.54z"/>
	<path class="st0" d="M64.26,54.55c-0.53,0.29-3.05,0.62-4.38,1.09c-1.88,0.66-3.3,1.87-4.85,2.94c-1.71,1.14-3.51,2.17-5.6,2.61
		c-0.67,0.15-1.89,0.12-2.6,0.04c-1.63-0.22-3.78-0.79-3.78-0.99s0.52-0.12,1.06-0.07c0.58,0.06,1.87,0.35,1.96,0.36
		c0.87,0.13,1.6,0.11,2.51,0.14c1.59,0.07,3.2-1.05,4.46-1.79c2.14-1.27,3.51-2.38,5.83-3.44c0.44-0.2,2.33-0.64,2.82-0.66
		C61.69,54.79,64.76,54.28,64.26,54.55z"/>
</g>
</svg>
